[img]http://img708.imageshack.us/img708/5508/alvind.jpg[/img]
[code]
Alvin and The Chipmunks 3 Chipwrecked 2011 CAM XviD-26K

Imdb: 
http://www.imdb.com/title/tt1615918/

Plot:
Playing around while aboard a cruise ship, the Chipmunks and Chipettes accidentally go overboard and end up marooned in a tropical paradise. They discover their new turf is not as deserted as it seems.

Sources:
UNKNOWN THNXS MAN!

Notes:
thnxs i did have english audio for this movie 3 days ago but was very bad glad to see a better audio out there :) thnxs added a few filters to make it sound and look nice so enjoy :P


Greetz:
Xtreme Encode|FYA|ILLUMANTI|CM8|RX|VISION|HDSCENE|NIGHTMAREZ|xTriLL|DTRG|CRYS|REMIXHD|BIDA
To all the people who have helped me :P you know who you are

Anything to offer email us @: 26k@hushmail.me

Video
ID                                       : 0
Format                                   : MPEG-4 Visual
Format profile                           : Advanced Simple@L5
Format settings, BVOP                    : 2
Format settings, QPel                    : No
Format settings, GMC                     : No warppoints
Format settings, Matrix                  : Default (H.263)
Codec ID                                 : XVID
Codec ID/Hint                            : XviD
Duration                                 : 1h 20mn
Bit rate                                 : 1 900 Kbps
Width                                    : 680 pixels
Height                                   : 368 pixels
Display aspect ratio                     : 16:9
Frame rate                               : 29.970 fps
Color space                              : YUV
Chroma subsampling                       : 4:2:0
Bit depth                                : 8 bits
Scan type                                : Progressive
Compression mode                         : Lossy
Bits/(Pixel*Frame)                       : 0.253
Stream size                              : 1.07 GiB (93%)
Writing library                          : XviD 63

Audio
ID                                       : 1
Format                                   : MPEG Audio
Format version                           : Version 1
Format profile                           : Layer 3
Codec ID                                 : 55
Codec ID/Hint                            : MP3
Duration                                 : 1h 20mn
Bit rate mode                            : Constant
Bit rate                                 : 128 Kbps
Channel(s)                               : 2 channels
Sampling rate                            : 44.1 KHz
Compression mode                         : Lossy
Stream size                              : 73.6 MiB (6%)
Alignment                                : Aligned on interleaves
Interleave, duration                     : 33 ms (1.00 video frame)

[/code]
Screens:
[img]http://img808.imageshack.us/img808/615/vlcsnap2011122217h04m48.png[/img]
[img]http://img64.imageshack.us/img64/9035/vlcsnap2011122217h04m55.png[/img]
[img]http://img687.imageshack.us/img687/7683/vlcsnap2011122217h05m00.png[/img]
[img]http://img809.imageshack.us/img809/7408/vlcsnap2011122217h05m07.png[/img]
[img]http://img835.imageshack.us/img835/9083/vlcsnap2011122217h05m15.png[/img]
[img]http://img841.imageshack.us/img841/3010/vlcsnap2011122217h05m23.png[/img]

[img]http://img851.imageshack.us/img851/5503/26ks.jpg[/img]#
Thank you smallz for banner!